<svg width="31" height="31" viewBox="0 0 31 31" fill="none" xmlns="http://www.w3.org/2000/svg">
<path d="M15.3682 8C16.7489 8 17.8682 6.88071 17.8682 5.5C17.8682 4.11929 16.7489 3 15.3682 3C13.9875 3 12.8682 4.11929 12.8682 5.5C12.8682 6.88071 13.9875 8 15.3682 8Z" fill="#24663B"/>
<path d="M24.1182 16.75V14.25C22.1932 14.275 20.2557 13.3125 19.0307 11.9625L17.4182 10.175C17.2057 9.93752 16.9432 9.75002 16.6557 9.61252C16.6432 9.61252 16.6432 9.60003 16.6307 9.60003H16.6182C16.1807 9.35003 15.6807 9.22502 15.1307 9.27502C13.8182 9.38752 12.8682 10.55 12.8682 11.8625V19.25C12.8682 20.625 13.9932 21.75 15.3682 21.75H21.6182V28H24.1182V21.125C24.1182 19.75 22.9932 18.625 21.6182 18.625H17.8682V14.3125C19.4807 15.65 21.9307 16.7375 24.1182 16.75ZM12.8682 25.5C10.7932 25.5 9.11816 23.825 9.11816 21.75C9.11816 20.1125 10.1682 18.7375 11.6182 18.2125V15.625C8.76816 16.2 6.61816 18.725 6.61816 21.75C6.61816 25.2 9.41816 28 12.8682 28C15.8932 28 18.4182 25.85 18.9932 23H16.4057C15.8932 24.45 14.5057 25.5 12.8682 25.5Z" fill="#24663B"/>
</svg>
