<svg width="31" height="31" viewBox="0 0 31 31" fill="none" xmlns="http://www.w3.org/2000/svg">
<path d="M26.2041 8C22.9416 8.875 19.1166 9.25 15.5791 9.25C12.0416 9.25 8.2166 8.875 4.9541 8L4.3291 10.5C6.6541 11.125 9.3291 11.5375 11.8291 11.75V28H14.3291V20.5H16.8291V28H19.3291V11.75C21.8291 11.5375 24.5041 11.125 26.8291 10.5L26.2041 8ZM15.5791 8C16.9541 8 18.0791 6.875 18.0791 5.5C18.0791 4.125 16.9541 3 15.5791 3C14.2041 3 13.0791 4.125 13.0791 5.5C13.0791 6.875 14.2041 8 15.5791 8Z" fill="#5F2EEA"/>
</svg>
