<svg width="31" height="31" viewBox="0 0 31 31" fill="none" xmlns="http://www.w3.org/2000/svg">
<path d="M17.0391 10.5C17.0391 7.7375 14.8016 5.5 12.0391 5.5C9.27656 5.5 7.03906 7.7375 7.03906 10.5C7.03906 13.2625 9.27656 15.5 12.0391 15.5C14.8016 15.5 17.0391 13.2625 17.0391 10.5ZM14.5391 10.5C14.5391 11.875 13.4141 13 12.0391 13C10.6641 13 9.53906 11.875 9.53906 10.5C9.53906 9.125 10.6641 8 12.0391 8C13.4141 8 14.5391 9.125 14.5391 10.5ZM2.03906 23V25.5H22.0391V23C22.0391 19.675 15.3766 18 12.0391 18C8.70156 18 2.03906 19.675 2.03906 23ZM4.53906 23C4.78906 22.1125 8.66406 20.5 12.0391 20.5C15.4016 20.5 19.2641 22.1 19.5391 23H4.53906ZM25.7891 19.25V15.5H29.5391V13H25.7891V9.25H23.2891V13H19.5391V15.5H23.2891V19.25H25.7891Z" fill="#FFB648"/>
</svg>
